HIERARCHY
ROOT Hips
{
     OFFSET 38.95220 98.65140 7.67574
     CHANNELS 6 Xposition Yposition Zposition Zrotation Xrotation Yrotation
     JOINT Spine
     {
          OFFSET -0.00000 11.89050 0.00000
          CHANNELS 3 Zrotation Xrotation Yrotation
          JOINT Spine1
          {
               OFFSET 0.00000 25.65740 0.12766
               CHANNELS 3 Zrotation Xrotation Yrotation
               JOINT HEad
               {
                    OFFSET 0.00000 8.73416 0.01134
                    CHANNELS 3 Zrotation Xrotation Yrotation
                    End Site
                    {
                         OFFSET -0.29000 12.77420 2.51395
                    }
               }
               JOINT LeftShoulder1
               {
                    OFFSET 8.99000 -0.36225 -0.22000
                    CHANNELS 3 Zrotation Xrotation Yrotation
                    JOINT LeftArm
                    {
                         OFFSET 10.28270 -0.00338 0.32212
                         CHANNELS 3 Zrotation Xrotation Yrotation
                         JOINT LeftForeArm
                         {
                              OFFSET 32.76690 0.09914 -1.42434
                              CHANNELS 3 Zrotation Xrotation Yrotation
                              JOINT LeftHand
                              {
                                   OFFSET 27.56430 0.08536 1.02216
                                   CHANNELS 3 Zrotation Xrotation Yrotation
                                   End Site
                                   {
                                        OFFSET 16.74430 -0.60000 1.50291
                                   }
                              }
                         }
                    }
               }
               JOINT RightShoulder
               {
                    OFFSET -8.99000 -0.36225 -0.22000
                    CHANNELS 3 Zrotation Xrotation Yrotation
                    JOINT RightArm
                    {
                         OFFSET -10.28270 -0.00338 0.32212
                         CHANNELS 3 Zrotation Xrotation Yrotation
                         JOINT RightForeArm
                         {
                              OFFSET -32.89710 0.09914 -1.42434
                              CHANNELS 3 Zrotation Xrotation Yrotation
                              JOINT RightHand
                              {
                                   OFFSET -27.49210 0.08536 1.02216
                                   CHANNELS 3 Zrotation Xrotation Yrotation
                                   End Site
                                   {
                                        OFFSET -16.63120 -0.60000 1.50291
                                   }
                              }
                         }
                    }
               }
          }
     }
     JOINT LeftUpLeg
     {
          OFFSET 8.94580 -8.66707 0.10165
          CHANNELS 3 Zrotation Xrotation Yrotation
          JOINT LeftLeg
          {
               OFFSET -0.00000 -44.42270 1.37270
               CHANNELS 3 Zrotation Xrotation Yrotation
               JOINT LeftFoot
               {
                    OFFSET -0.25355 -42.09240 -1.46059
                    CHANNELS 3 Zrotation Xrotation Yrotation
                    JOINT LeftToes
                    {
                         OFFSET -0.04000 -4.41509 8.49910
                         CHANNELS 3 Zrotation Xrotation Yrotation
                         End Site
                         {
                              OFFSET 0.08000 -0.04745 9.77979
                         }
                    }
               }
          }
     }
     JOINT RightUpLeg
     {
          OFFSET -8.94580 -8.66707 0.10165
          CHANNELS 3 Zrotation Xrotation Yrotation
          JOINT RightLeg
          {
               OFFSET -0.00000 -44.42270 1.37270
               CHANNELS 3 Zrotation Xrotation Yrotation
               JOINT RightFoot
               {
                    OFFSET 0.25355 -42.09240 -1.46059
                    CHANNELS 3 Zrotation Xrotation Yrotation
                    JOINT RightToes
                    {
                         OFFSET 0.04000 -4.41509 8.49910
                         CHANNELS 3 Zrotation Xrotation Yrotation
                         End Site
                         {
                              OFFSET -0.08000 -0.13745 9.77979
                         }
                    }
               }
          }
     }
}
MOTION
Frames: 10
Frame Time: 0.01667
38.95220 98.65140 7.67574 -3.91637 -2.41677 -37.25140 2.46517 6.61127 2.70533 3.65420 13.37420 5.31482 -1.07799 -8.22176 28.04730 -0.00000 -0.00000 0.00000 -103.59500 -38.13170 -104.32400 -20.13480 33.02740 -81.38990 5.55594 9.67997 -0.87718 6.62371 0.70904 3.80848 71.74890 -12.32640 86.20490 16.84530 32.38450 85.97660 -5.55712 9.68432 0.87760 6.77927 -12.79810 -4.22103 8.27259 11.32830 -24.98810 -17.25670 -6.62648 0.18184 0.49222 0.85466 -2.21192 -3.34261 -8.68302 -1.38302 -14.27700 38.68980 21.87220 11.74280 -25.67070 1.62962 13.29010 14.02040 -5.12807 
38.95550 98.54650 7.91965 -3.52068 -2.45060 -37.05440 2.25080 6.47592 2.75959 3.40292 13.09460 5.44478 -1.05017 -8.11823 27.61490 -0.00000 -0.00000 0.00000 -103.53800 -37.60130 -104.88000 -20.37170 33.28230 -82.09870 5.55594 9.67997 -0.87718 7.08593 0.74453 3.92766 71.50310 -12.62180 85.16100 17.14100 32.99080 86.10930 -5.55712 9.68432 0.87760 6.45630 -13.15610 -3.96243 8.23407 11.58040 -25.23510 -18.35460 -6.70724 0.17937 0.63609 0.09418 -2.81873 -4.61887 -8.41106 -1.12166 -13.55700 42.74520 22.82540 12.21640 -23.30670 1.45305 12.31140 11.68610 -6.34272 
38.93090 98.45200 8.12384 -3.17143 -2.45402 -36.80510 2.14885 6.32225 2.77597 3.20407 12.78970 5.52053 -1.09953 -8.13109 27.20250 -0.00000 -0.00000 0.00000 -103.59800 -37.31600 -105.60800 -20.61320 33.56140 -82.66110 5.55594 9.67997 -0.87718 7.71265 0.79136 4.06347 70.80520 -12.89100 84.29740 17.35930 33.44210 86.17670 -5.55712 9.68432 0.87760 6.20529 -13.55030 -3.58569 8.22466 11.90730 -25.72510 -20.07620 -7.50294 0.05719 0.70250 1.52439 -3.11797 -5.72767 -7.93547 -0.99866 -12.88050 46.24320 22.79040 11.26460 -20.30750 1.02501 11.74670 10.62230 -6.73929 
38.88640 98.34880 8.25583 -2.83075 -2.49533 -36.55630 1.96081 6.18955 2.79660 3.05555 12.50870 5.56668 -1.22258 -8.18976 26.81920 -0.00000 -0.00000 0.00000 -103.90300 -37.19130 -106.53800 -20.86090 33.84090 -82.99270 5.55594 9.67997 -0.87718 8.30987 0.83509 4.17288 69.94650 -13.07810 83.60860 17.53110 33.79280 86.20490 -5.55712 9.68432 0.87760 5.88058 -14.00170 -3.23335 8.32434 12.46490 -26.66930 -20.88930 -8.48940 -0.11909 0.57225 3.19443 -2.60746 -6.83920 -7.06352 -0.98257 -12.01720 48.78020 21.42010 11.39930 -16.63160 0.68262 9.66369 8.75354 -5.58870 
38.83540 98.22730 8.32050 -2.51050 -2.57878 -36.35480 1.71348 6.08529 2.84654 2.94633 12.26460 5.62821 -1.39936 -8.24664 26.45670 -0.00000 -0.00000 0.00000 -104.51400 -37.10410 -107.63700 -21.14020 34.11080 -83.02620 5.55594 9.67997 -0.87718 8.73164 0.86468 4.23347 69.19530 -13.17690 83.04640 17.67290 34.08360 86.23880 -5.55712 9.68432 0.87760 5.48570 -14.49460 -3.02681 8.52669 13.14190 -27.12330 -21.38340 -9.18872 -0.25201 0.59786 4.65122 -2.73270 -8.05258 -5.80064 -0.92044 -10.62210 50.29760 18.03300 12.40750 -13.14660 0.39747 7.17088 7.14377 -3.23719 
38.79700 98.12990 8.37472 -2.31310 -2.63227 -36.21490 1.73397 5.96034 2.88938 2.87621 12.03100 5.75984 -1.60795 -8.25310 26.10530 -0.00000 -0.00000 0.00000 -105.38700 -36.92960 -108.80300 -21.47650 34.37130 -82.74630 5.55594 9.67997 -0.87718 9.00862 0.88288 4.26109 68.65540 -13.23070 82.57600 17.78890 34.33750 86.31510 -5.55712 9.68432 0.87760 5.16891 -14.81290 -3.00022 8.75998 13.57040 -27.51280 -21.63860 -9.29201 -0.27492 0.56250 4.44076 -2.59457 -9.18378 -4.35950 -0.76314 -8.54937 50.99590 12.50670 10.83100 -7.44708 -0.19066 2.50539 3.51006 0.83640 
38.75350 98.04600 8.39358 -2.15196 -2.68465 -36.19070 1.83880 5.82560 2.96211 2.77505 11.80600 6.00013 -1.82365 -8.17826 25.78680 -0.00000 -0.00000 0.00000 -106.39000 -36.61580 -109.89500 -21.84030 34.59720 -82.24190 5.55594 9.67997 -0.87718 9.25551 0.89981 4.29045 68.34030 -13.30230 82.19360 17.90480 34.60360 86.43670 -5.55712 9.68432 0.87760 4.90851 -15.03710 -3.14382 8.94374 13.91290 -27.39950 -21.90880 -9.09689 -0.24194 0.70298 3.44903 -3.12705 -10.37130 -2.75877 -0.45942 -5.72589 50.87370 6.52110 10.66060 -5.10829 -0.39430 2.97834 4.08921 0.70697 
38.68840 97.90020 8.32294 -1.91376 -2.77216 -36.35460 1.73327 5.72583 3.13510 2.59707 11.60460 6.34891 -1.99813 -8.04891 25.57170 -0.00000 -0.00000 0.00000 -107.39200 -36.20990 -110.80800 -22.15810 34.75490 -81.68470 5.55594 9.67997 -0.87718 9.52242 0.92059 4.34036 68.30410 -13.43490 81.90390 18.08760 34.98170 86.56770 -5.55712 9.68432 0.87760 4.66520 -15.37780 -3.36030 9.03630 14.48340 -27.12900 -22.27010 -8.97614 -0.22340 0.75426 2.33625 -3.33243 -11.88370 -0.82901 0.04659 -2.50433 49.12440 -0.84143 10.95130 -0.33251 -0.82685 -1.74239 -0.49378 4.13834 
38.60440 97.76680 8.19555 -1.70877 -2.81554 -36.65620 1.70014 5.61820 3.33406 2.41083 11.40540 6.77494 -2.08833 -7.93979 25.52230 -0.00000 -0.00000 0.00000 -108.33900 -35.80150 -111.52400 -22.39730 34.86030 -81.23270 5.55594 9.67997 -0.87718 9.77623 0.94253 4.40284 68.63640 -13.62570 81.69290 18.40740 35.56490 86.66530 -5.55712 9.68432 0.87760 4.59450 -15.73130 -3.44027 9.02684 15.02630 -26.97480 -22.35900 -8.71068 -0.17307 0.86335 0.88739 -3.80554 -13.33110 1.09386 0.50313 0.59333 46.50840 -7.20443 10.84510 2.67619 -1.08419 -3.80792 -3.10015 4.77954 
38.49660 97.61190 7.99801 -1.51851 -2.81567 -37.06460 1.68538 5.51180 3.55930 2.22429 11.21030 7.23967 -2.10039 -7.90421 25.62640 -0.00000 -0.00000 0.00000 -109.22400 -35.46670 -112.08600 -22.59570 34.97230 -80.97240 5.55594 9.67997 -0.87718 9.97292 0.96111 4.46179 69.36570 -13.83860 81.52340 18.88900 36.37290 86.71150 -5.55712 9.68432 0.87760 4.68979 -16.13790 -3.26859 8.95093 15.60980 -26.69660 -22.39760 -8.50424 -0.13342 0.99413 -0.13711 -4.40940 -14.66210 2.90781 0.76653 3.27775 43.41660 -10.50660 10.50210 2.34492 -1.02497 -1.39596 -2.28942 0.03386 
